<?xml version="1.0" encoding="UTF-8"?>
<svg id="Layer_1" xmlns="http://www.w3.org/2000/svg" version="1.1" viewBox="0 0 287.19 287.01">
  <!-- Generator: Adobe Illustrator 29.1.0, SVG Export Plug-In . SVG Version: 2.1.0 Build 142)  -->
  <polygon points="143.4 113.29 173.93 143.42 143.59 173.75 113.25 143.59 143.4 113.29"/>
  <polygon points="109.63 172.3 80.85 143.59 109.63 114.7 109.63 172.3"/>
  <polygon points="177.55 172.3 177.55 114.7 206.33 143.42 177.55 172.3"/>
  <polygon points="172.27 109.42 114.91 109.42 143.59 80.63 172.27 109.42"/>
  <polygon points="172.27 177.58 143.59 206.38 114.91 177.58 172.27 177.58"/>
  <polygon points="109.63 82.3 109.63 109.42 82.51 109.42 109.63 82.3"/>
  <polygon points="109.63 177.58 109.63 204.7 82.51 177.58 109.63 177.58"/>
  <polygon points="204.67 109.42 177.55 109.42 177.55 82.3 204.67 109.42"/>
  <polygon points="204.67 177.58 177.55 204.7 177.55 177.58 204.67 177.58"/>
  <polygon points="209.95 159.82 209.95 127.18 226.49 143.42 209.95 159.82"/>
  <polygon points="160.03 77.02 127.15 77.02 143.59 60.47 160.03 77.02"/>
  <polygon points="160.03 209.98 143.59 226.54 127.15 209.98 160.03 209.98"/>
  <polygon points="76.99 159.82 60.69 143.59 76.99 127.18 76.99 159.82"/>
  <polygon points="109.63 77.02 93.07 77.02 109.63 60.46 109.63 77.02"/>
  <polygon points="194.11 77.02 177.55 77.02 177.55 60.46 194.11 77.02"/>
  <polygon points="109.63 209.98 109.63 226.54 93.07 209.98 109.63 209.98"/>
  <polygon points="194.11 209.98 177.55 226.54 177.55 209.98 194.11 209.98"/>
  <polygon points="226.51 109.42 209.95 109.42 209.95 93.1 226.51 109.42"/>
  <polygon points="226.51 177.58 209.95 193.9 209.95 177.58 226.51 177.58"/>
  <polygon points="76.99 109.42 60.67 109.42 76.99 93.1 76.99 109.42"/>
  <polygon points="76.99 177.58 76.99 193.9 60.67 177.58 76.99 177.58"/>
</svg>